%TF.GenerationSoftware,KiCad,Pcbnew,7.0.7*%
%TF.CreationDate,2023-08-29T08:23:16+05:30*%
%TF.ProjectId,LED Project,4c454420-5072-46f6-9a65-63742e6b6963,rev?*%
%TF.SameCoordinates,Original*%
%TF.FileFunction,AssemblyDrawing,Top*%
%FSLAX46Y46*%
G04 Gerber Fmt 4.6, Leading zero omitted, Abs format (unit mm)*
G04 Created by KiCad (PCBNEW 7.0.7) date 2023-08-29 08:23:16*
%MOMM*%
%LPD*%
G01*
G04 APERTURE LIST*
%ADD10C,0.150000*%
%ADD11C,0.080000*%
%ADD12C,0.100000*%
%ADD13C,0.120000*%
G04 APERTURE END LIST*
D10*
X148062319Y-104603333D02*
X148776604Y-104603333D01*
X148776604Y-104603333D02*
X148919461Y-104650952D01*
X148919461Y-104650952D02*
X149014700Y-104746190D01*
X149014700Y-104746190D02*
X149062319Y-104889047D01*
X149062319Y-104889047D02*
X149062319Y-104984285D01*
X148157557Y-104174761D02*
X148109938Y-104127142D01*
X148109938Y-104127142D02*
X148062319Y-104031904D01*
X148062319Y-104031904D02*
X148062319Y-103793809D01*
X148062319Y-103793809D02*
X148109938Y-103698571D01*
X148109938Y-103698571D02*
X148157557Y-103650952D01*
X148157557Y-103650952D02*
X148252795Y-103603333D01*
X148252795Y-103603333D02*
X148348033Y-103603333D01*
X148348033Y-103603333D02*
X148490890Y-103650952D01*
X148490890Y-103650952D02*
X149062319Y-104222380D01*
X149062319Y-104222380D02*
X149062319Y-103603333D01*
D11*
X139227149Y-99183333D02*
X138989054Y-99349999D01*
X139227149Y-99469047D02*
X138727149Y-99469047D01*
X138727149Y-99469047D02*
X138727149Y-99278571D01*
X138727149Y-99278571D02*
X138750959Y-99230952D01*
X138750959Y-99230952D02*
X138774768Y-99207142D01*
X138774768Y-99207142D02*
X138822387Y-99183333D01*
X138822387Y-99183333D02*
X138893816Y-99183333D01*
X138893816Y-99183333D02*
X138941435Y-99207142D01*
X138941435Y-99207142D02*
X138965244Y-99230952D01*
X138965244Y-99230952D02*
X138989054Y-99278571D01*
X138989054Y-99278571D02*
X138989054Y-99469047D01*
X139227149Y-98707142D02*
X139227149Y-98992856D01*
X139227149Y-98849999D02*
X138727149Y-98849999D01*
X138727149Y-98849999D02*
X138798578Y-98897618D01*
X138798578Y-98897618D02*
X138846197Y-98945237D01*
X138846197Y-98945237D02*
X138870006Y-98992856D01*
D10*
X139414533Y-111858649D02*
X139081200Y-112091982D01*
X139414533Y-112258649D02*
X138714533Y-112258649D01*
X138714533Y-112258649D02*
X138714533Y-111991982D01*
X138714533Y-111991982D02*
X138747866Y-111925316D01*
X138747866Y-111925316D02*
X138781200Y-111891982D01*
X138781200Y-111891982D02*
X138847866Y-111858649D01*
X138847866Y-111858649D02*
X138947866Y-111858649D01*
X138947866Y-111858649D02*
X139014533Y-111891982D01*
X139014533Y-111891982D02*
X139047866Y-111925316D01*
X139047866Y-111925316D02*
X139081200Y-111991982D01*
X139081200Y-111991982D02*
X139081200Y-112258649D01*
X139047866Y-111558649D02*
X139047866Y-111325316D01*
X139414533Y-111225316D02*
X139414533Y-111558649D01*
X139414533Y-111558649D02*
X138714533Y-111558649D01*
X138714533Y-111558649D02*
X138714533Y-111225316D01*
X139047866Y-110691983D02*
X139047866Y-110925316D01*
X139414533Y-110925316D02*
X138714533Y-110925316D01*
X138714533Y-110925316D02*
X138714533Y-110591983D01*
X138714533Y-110225316D02*
X138881200Y-110225316D01*
X138814533Y-110391983D02*
X138881200Y-110225316D01*
X138881200Y-110225316D02*
X138814533Y-110058649D01*
X139014533Y-110325316D02*
X138881200Y-110225316D01*
X138881200Y-110225316D02*
X139014533Y-110125316D01*
X138714533Y-109691983D02*
X138881200Y-109691983D01*
X138814533Y-109858650D02*
X138881200Y-109691983D01*
X138881200Y-109691983D02*
X138814533Y-109525316D01*
X139014533Y-109791983D02*
X138881200Y-109691983D01*
X138881200Y-109691983D02*
X139014533Y-109591983D01*
D12*
%TO.C,J2*%
X149307500Y-101730000D02*
X143507500Y-101730000D01*
X146887500Y-101730000D02*
X146387500Y-102437107D01*
X143507500Y-101730000D02*
X143507500Y-106810000D01*
X146387500Y-102437107D02*
X145887500Y-101730000D01*
X149307500Y-106810000D02*
X149307500Y-101730000D01*
X143507500Y-106810000D02*
X149307500Y-106810000D01*
%TO.C,R1*%
X139625000Y-98100000D02*
X139625000Y-100100000D01*
X138375000Y-98100000D02*
X139625000Y-98100000D01*
X139625000Y-100100000D02*
X138375000Y-100100000D01*
X138375000Y-100100000D02*
X138375000Y-98100000D01*
D13*
%TO.C,D1*%
X137984000Y-112778000D02*
X137984000Y-109278000D01*
D12*
X137984000Y-109250000D02*
X140270000Y-109250000D01*
X140270000Y-109250000D02*
X140270000Y-113314000D01*
X140270000Y-113286000D02*
X137984000Y-113286000D01*
X137984000Y-112778000D01*
X140270000Y-112778000D01*
X140270000Y-113286000D01*
G36*
X140270000Y-113286000D02*
G01*
X137984000Y-113286000D01*
X137984000Y-112778000D01*
X140270000Y-112778000D01*
X140270000Y-113286000D01*
G37*
%TD*%
M02*
